<?xml version="1.0" encoding="UTF-8"?>
<svg version="1.1" xmlns="http://www.w3.org/2000/svg" width="1408" height="768">
<path d="M0 0 C464.64 0 929.28 0 1408 0 C1408 253.44 1408 506.88 1408 768 C943.36 768 478.72 768 0 768 C0 514.56 0 261.12 0 0 Z " fill="#FEFEFE" transform="translate(0,0)"/>
<path d="M0 0 C0.67869141 0.24943359 1.35738281 0.49886719 2.05664062 0.75585938 C26.63412288 9.85256784 47.36149981 23.94763975 67 41 C67.70253906 41.57878906 68.40507813 42.15757812 69.12890625 42.75390625 C89.93244607 60.08295091 104.43402122 83.3741232 117 107 C117.37261963 107.67724121 117.74523926 108.35448242 118.12915039 109.05224609 C119 111 119 111 119 114 C107.71695583 114.30213829 96.43488399 114.53265424 85.14860821 114.67355824 C79.90677522 114.74121305 74.66772274 114.83284814 69.42749023 114.98071289 C64.36327458 115.12270513 59.30171977 115.19983974 54.23566628 115.23340416 C52.31010869 115.2572977 50.38468574 115.30396377 48.46027184 115.37449074 C32.59299849 115.93250162 32.59299849 115.93250162 27.46328735 111.18417358 C24.59493959 108.02916836 22.34932464 104.54958907 20 101 C13.13166745 93.78628624 5.0540567 88.39248145 -3.30761719 83.08544922 C-4.70456984 82.18948103 -6.07837901 81.25753778 -7.4453125 80.31640625 C-30.52229035 65.05582412 -60.07294881 61.577386 -87 63 C-87.78197754 63.04012207 -88.56395508 63.08024414 -89.36962891 63.12158203 C-122.79441385 65.20918671 -154.22904935 83.80855583 -176.6640625 107.85546875 C-200.5707178 135.27780865 -212.02753079 170.79564994 -210.21875 206.95996094 C-207.88049249 239.45547709 -194.24147111 268.49184545 -172 292 C-171.24074219 292.82371094 -170.48148438 293.64742188 -169.69921875 294.49609375 C-147.85146345 317.41657026 -114.98701083 332.23428411 -83.37890625 333.32421875 C-59.18417205 333.70390181 -38.30133135 329.08225528 -16 320 C-14.33363045 319.33259101 -12.66712072 318.66553041 -11 318 C-15.07173455 323.38493089 -19.78484283 327.23509127 -25.1875 331.25 C-26.07026611 331.90677734 -26.95303223 332.56355469 -27.86254883 333.24023438 C-41.24362605 343.01020298 -55.50467597 350.2299013 -71 356 C-72.82917969 356.69222656 -72.82917969 356.69222656 -74.6953125 357.3984375 C-89.31756481 362.60939135 -105.42709931 366.06996254 -120.96875 366.23828125 C-121.71793701 366.24812042 -122.46712402 366.25795959 -123.23901367 366.26809692 C-167.3781656 366.72783228 -208.68964116 355.88572467 -241.3671875 324.6328125 C-261.76977918 304.23022082 -273.60595044 278.82656158 -280.75 251.0625 C-280.93651123 250.34989014 -281.12302246 249.63728027 -281.31518555 248.90307617 C-285.20411867 232.87453036 -286.55190451 216.82311013 -286.4375 200.375 C-286.43512329 199.46711731 -286.43274658 198.55923462 -286.43029785 197.62384033 C-286.36839265 182.43476729 -285.22384052 167.88277839 -282 153 C-281.84515137 152.24267578 -281.69030273 151.48535156 -281.53076172 150.70507812 C-280.5699931 146.07040691 -279.38535855 141.52675866 -278 137 C-277.77505859 136.26217285 -277.55011719 135.5243457 -277.31835938 134.76416016 C-268.12665976 105.33980775 -252.97130771 78.91208178 -232.078125 56.265625 C-230.18181669 54.1982212 -228.36970394 52.08249907 -226.5625 49.9375 C-194.28040502 13.19008123 -140.75358462 -9.68504797 -92.57080078 -12.87548828 C-61.03515641 -14.40285567 -29.66129009 -11.26625816 0 0 Z " fill="#004790" transform="translate(780,186)"/>
<path d="M0 0 C0.13186268 14.02355046 0.26228867 28.0471137 0.39115143 42.07069206 C0.4510535 48.58522006 0.51138283 55.09974347 0.57275391 61.61425781 C0.63217116 67.92315868 0.69038087 74.23206973 0.74781799 80.54098892 C0.76972591 82.92542021 0.79203975 85.30984782 0.81480408 87.69427109 C0.97135039 104.12997333 1.02909436 120.56355932 1 137 C-10.19025935 129.93746957 -21.19941783 122.64642986 -32 115 C-32.33837891 116.03060547 -32.33837891 116.03060547 -32.68359375 117.08203125 C-34.3181264 120.70516445 -36.58608285 123.61547818 -39.0625 126.6875 C-39.55709717 127.30689453 -40.05169434 127.92628906 -40.5612793 128.56445312 C-51.88347114 142.63290975 -64.55194319 156.10751967 -79 167 C-79.58523438 167.44520996 -80.17046875 167.89041992 -80.7734375 168.34912109 C-118.10443117 196.50926096 -163.31735337 211.48498241 -210 211.375 C-210.79827209 211.37512085 -211.59654419 211.3752417 -212.41900635 211.37536621 C-226.56446872 211.34509197 -240.16444113 210.08904571 -254 207 C-254.72719238 206.83983398 -255.45438477 206.67966797 -256.20361328 206.51464844 C-260.53215886 205.52855655 -264.76132977 204.31528912 -269 203 C-269.65355469 202.80744629 -270.30710937 202.61489258 -270.98046875 202.41650391 C-302.57109106 193.07415523 -329.27982041 176.415516 -354 155 C-350.46738112 155 -348.3075769 156.22660513 -345.20214844 157.79418945 C-304.88599157 178.13762006 -256.29155002 182.9041649 -213 169 C-212.23478027 168.75765625 -211.46956055 168.5153125 -210.68115234 168.265625 C-198.89384413 164.48107119 -187.87294858 159.9075304 -177 154 C-176.39462402 153.67918457 -175.78924805 153.35836914 -175.16552734 153.02783203 C-166.04119933 148.18137887 -158.02623039 142.44609898 -150 136 C-149.20722656 135.4121875 -148.41445313 134.824375 -147.59765625 134.21875 C-134.60508611 124.4465605 -122.79214931 111.95494206 -113 99 C-112.01610125 97.73270303 -111.03168669 96.46580641 -110.046875 95.19921875 C-104.0628306 87.43198461 -98.65339295 79.65137844 -94 71 C-94.70431152 70.74331543 -95.40862305 70.48663086 -96.13427734 70.22216797 C-101.04670579 68.12712479 -105.40765796 65.10976302 -109.89355469 62.23291016 C-111.62165196 61.12714233 -113.35732554 60.03403759 -115.09375 58.94140625 C-116.18945312 58.24144531 -117.28515625 57.54148437 -118.4140625 56.8203125 C-119.4138916 56.18367676 -120.4137207 55.54704102 -121.44384766 54.89111328 C-123.86189358 53.10217501 -125.3657237 51.5009905 -127 49 C-120.13984545 45.86098191 -113.18129224 43.07389182 -106.13800049 40.37301636 C-103.40606317 39.32531921 -100.67617474 38.27232685 -97.94610596 37.21977234 C-96.49499212 36.66036293 -95.04377809 36.10121335 -93.59246826 35.54231262 C-86.48627644 32.80508841 -79.38913424 30.0448202 -72.2930603 27.28149414 C-70.11204737 26.43245773 -67.93071498 25.58424759 -65.74926758 24.73632812 C-57.59755488 21.56768801 -49.44747828 18.39492028 -41.29971313 15.21614075 C-36.77757627 13.4526697 -32.25433352 11.69204698 -27.730896 9.93191528 C-25.49820542 9.0624195 -23.2659844 8.19171702 -21.03424072 7.3197937 C-17.9068346 6.09812236 -14.77783227 4.880629 -11.6484375 3.6640625 C-10.22763885 3.10733101 -10.22763885 3.10733101 -8.77813721 2.53935242 C-7.91210876 2.2036171 -7.04608032 1.86788177 -6.15380859 1.52197266 C-5.39635345 1.22666656 -4.63889832 0.93136047 -3.85848999 0.62710571 C-2 0 -2 0 0 0 Z " fill="#014790" transform="translate(914,384)"/>
<path d="M0 0 C0.13186268 14.02355046 0.26228867 28.0471137 0.39115143 42.07069206 C0.4510535 48.58522006 0.51138283 55.09974347 0.57275391 61.61425781 C0.63217116 67.92315868 0.69038087 74.23206973 0.74781799 80.54098892 C0.76972591 82.92542021 0.79203975 85.30984782 0.81480408 87.69427109 C0.97135039 104.12997333 1.02909436 120.56355932 1 137 C-10.25 130.03571429 -10.25 130.03571429 -14 126 C-12.35 126.33 -10.7 126.66 -9 127 C-9 127.66 -9 128.32 -9 129 C-6.69 128.67 -4.38 128.34 -2 128 C-2 88.4 -2 48.8 -2 8 C-6.29 8 -10.58 8 -15 8 C-15 7.01 -15 6.02 -15 5 C-12.8765984 4.16260219 -10.7512272 3.33019717 -8.625 2.5 C-7.44164062 2.0359375 -6.25828125 1.571875 -5.0390625 1.09375 C-2 0 -2 0 0 0 Z " fill="#0E4680" transform="translate(914,384)"/>
<path d="M0 0 C4.95 0 9.9 0 15 0 C11.22514369 2.83114223 7.93783033 4.3184106 3.5625 5.8125 C2.82894287 6.06676758 2.09538574 6.32103516 1.33959961 6.58300781 C-4.70376573 8.63887456 -10.80430937 10.48221414 -16.9375 12.25 C-17.78820068 12.49596924 -18.63890137 12.74193848 -19.51538086 12.99536133 C-37.39534459 18.03317014 -55.07759323 19.318521 -73.5625 19.125 C-75.26757276 19.11493099 -76.9726514 19.1058122 -78.67773438 19.09765625 C-82.78530635 19.07599708 -86.89258456 19.04169314 -91 19 C-91.33 18.34 -91.66 17.68 -92 17 C-91.10702713 16.97240852 -91.10702713 16.97240852 -90.1960144 16.94425964 C-83.93234871 16.74820088 -77.66946963 16.53418992 -71.40673828 16.31030273 C-69.07746313 16.22931107 -66.74803041 16.15271502 -64.41845703 16.08081055 C-51.92073772 15.69209984 -40.14015416 15.14778143 -28 12 C-25.33218637 11.57274864 -22.68911568 11.26891157 -20 11 C-23.96 10.67 -27.92 10.34 -32 10 C-30 8 -30 8 -26.03515625 7.91015625 C-24.37745519 7.95581647 -22.71989747 8.00690066 -21.0625 8.0625 C-13.58491448 8.20905025 -7.07532507 7.67113396 0 5 C0 3.35 0 1.7 0 0 Z " fill="#11477F" transform="translate(776,576)"/>
<path d="M0 0 C0.66 0.33 1.32 0.66 2 1 C-25.75 28 -25.75 28 -38 28 C-38 27.34 -38 26.68 -38 26 C-38.66 26 -39.32 26 -40 26 C-40 25.34 -40 24.68 -40 24 C-36.37 23.67 -32.74 23.34 -29 23 C-29 22.34 -29 21.68 -29 21 C-27.68 20.67 -26.36 20.34 -25 20 C-25 19.34 -25 18.68 -25 18 C-29.1630737 16.41406716 -32.53925362 15.68878514 -37 16 C-37.33 16.33 -37.66 16.66 -38 17 C-39.99958364 17.04080783 -42.00045254 17.04254356 -44 17 C-44 16.34 -44 15.68 -44 15 C-42.71609375 14.731875 -41.4321875 14.46375 -40.109375 14.1875 C-26.54317241 11.22691988 -11.71032931 7.80688621 0 0 Z " fill="#2B4C74" transform="translate(767,504)"/>
<path d="M0 0 C0.99 0.33 1.98 0.66 3 1 C2.030625 1.5775 1.06125 2.155 0.0625 2.75 C-3.40017593 4.79241211 -3.40017593 4.79241211 -4 9 C-6.97 9 -9.94 9 -13 9 C-13.66 10.32 -14.32 11.64 -15 13 C-17.125 14.25 -17.125 14.25 -19 15 C-19 15.66 -19 16.32 -19 17 C-20.65 17 -22.3 17 -24 17 C-25.47047336 20.91063224 -25.47047336 20.91063224 -26 25 C-27.98 24.67 -29.96 24.34 -32 24 C-32.34611328 24.85271484 -32.34611328 24.85271484 -32.69921875 25.72265625 C-34.33121205 28.57986975 -36.32679067 30.28719372 -38.8125 32.4375 C-41.48946792 34.78511279 -44.10664131 37.10664131 -46.625 39.625 C-48.71366208 41.71366208 -50.85705969 43.55165833 -53.125 45.4375 C-56.49504768 48.33511109 -58.1124643 50.95528065 -60 55 C-61.62332967 56.38576923 -63.28724465 57.72641268 -65 59 C-65.66 59.99 -66.32 60.98 -67 62 C-67.66 61.67 -68.32 61.34 -69 61 C-57.68641656 46.74229256 -46.42683624 33.21617868 -32 22 C-30.22817707 20.50116905 -28.45735852 19.00115007 -26.6875 17.5 C-20.48631786 12.419835 -13.83918549 8.15917908 -7 4 C-6.38189453 3.60893066 -5.76378906 3.21786133 -5.12695312 2.81494141 C-3.46403747 1.7972126 -1.73457788 0.89011233 0 0 Z " fill="#0C427C" transform="translate(602,199)"/>
<path d="M0 0 C1.87762589 3.12234418 2.18085157 4.72732556 1.3125 8.25 C1.01472656 9.56291016 1.01472656 9.56291016 0.7109375 10.90234375 C0.47632813 11.92457031 0.24171875 12.94679688 0 14 C-0.53615727 16.60225826 -1.05724387 19.20436219 -1.5625 21.8125 C-1.93568359 23.67841797 -1.93568359 23.67841797 -2.31640625 25.58203125 C-4.45142492 38.16407444 -4.28489388 51.08680874 -4.5625 63.8125 C-4.6058025 65.68034592 -4.64942002 67.54818457 -4.69335938 69.41601562 C-4.79920018 73.94393484 -4.90079397 78.47193076 -5 83 C-5.66 82.67 -6.32 82.34 -7 82 C-7.42439658 58.98138245 -7.76925427 36.63980246 -3 14 C-2.68823235 12.44021794 -2.3769934 10.88033006 -2.06640625 9.3203125 C-1.43037715 6.2003369 -0.74316174 3.09650726 0 0 Z " fill="#144377" transform="translate(501,325)"/>
<path d="M0 0 C0.99 0 1.98 0 3 0 C3.226875 0.639375 3.45375 1.27875 3.6875 1.9375 C4.85250896 4.27193661 4.85250896 4.27193661 7.625 4.75 C8.40875 4.8325 9.1925 4.915 10 5 C9.67 5.66 9.34 6.32 9 7 C50.085 7.495 50.085 7.495 92 8 C91.01 6.515 91.01 6.515 90 5 C90 4.01 90 3.02 90 2 C90.66 2 91.32 2 92 2 C93.4606285 4.64738916 94 5.89448334 94 9 C82.63006467 9.16227145 71.26040529 9.28661052 59.88954735 9.3626852 C54.6093795 9.39919987 49.3300045 9.44871811 44.05029297 9.52807617 C38.95387624 9.60419879 33.85822147 9.64600358 28.76128006 9.6641407 C26.81793853 9.6770636 24.8746382 9.70230019 22.93162155 9.7401104 C20.20659432 9.79102367 17.48470454 9.7979202 14.75927734 9.79467773 C13.55733734 9.83242813 13.55733734 9.83242813 12.33111572 9.87094116 C8.90586745 9.82691785 6.82608309 9.67938372 4.12565994 7.45851326 C0 2.81486122 0 2.81486122 0 0 Z " fill="#124477" transform="translate(805,291)"/>
<path d="M0 0 C1.00611328 0.04382813 2.01222656 0.08765625 3.04882812 0.1328125 C7.89136002 0.36264921 12.5311831 0.8086776 17.3125 1.625 C19.60333289 1.69022873 21.89585794 1.7108841 24.1875 1.6875 C25.33992187 1.67847656 26.49234375 1.66945312 27.6796875 1.66015625 C28.98292969 1.64275391 28.98292969 1.64275391 30.3125 1.625 C30.3125 2.285 30.3125 2.945 30.3125 3.625 C28.9925 3.625 27.6725 3.625 26.3125 3.625 C26.8075 4.615 26.8075 4.615 27.3125 5.625 C29.6265622 6.35575648 31.96078869 7.02638258 34.3125 7.625 C34.3125 8.285 34.3125 8.945 34.3125 9.625 C33.2709375 9.37105469 32.229375 9.11710938 31.15625 8.85546875 C26.54976805 7.74277361 21.93322595 6.67679383 17.3125 5.625 C16.64557129 5.47063477 15.97864258 5.31626953 15.29150391 5.15722656 C3.35196907 2.44662946 -8.48623215 1.93036912 -20.6875 1.625 C-20.6875 1.295 -20.6875 0.965 -20.6875 0.625 C-13.68895212 -0.34681908 -7.04771748 -0.36540337 0 0 Z " fill="#1F5283" transform="translate(717.6875,246.375)"/>
<path d="M0 0 C0.66 0 1.32 0 2 0 C1.87882813 0.59611084 1.75765625 1.19222168 1.6328125 1.80639648 C-2.23866305 21.3592093 -3.06416033 40.17581385 -1 60 C-1.66 60 -2.32 60 -3 60 C-5.18427989 52.93576148 -5.30823321 46.2994039 -5.25 38.9375 C-5.24468262 37.73899414 -5.23936523 36.54048828 -5.23388672 35.30566406 C-5.10263556 23.03451096 -3.90096513 11.70289538 0 0 Z " fill="#20507E" transform="translate(572,347)"/>
<path d="M0 0 C-3.69799798 4.02201304 -7.41635747 6.68513102 -12.1875 9.3125 C-12.81591797 9.67150391 -13.44433594 10.03050781 -14.09179688 10.40039062 C-18.72157738 13 -18.72157738 13 -21 13 C-21 12.34 -21 11.68 -21 11 C-21.66 11 -22.32 11 -23 11 C-23 10.34 -23 9.68 -23 9 C-17.555 8.505 -17.555 8.505 -12 8 C-12 7.34 -12 6.68 -12 6 C-10.68 5.67 -9.36 5.34 -8 5 C-8 4.34 -8 3.68 -8 3 C-12.1630737 1.41406716 -15.53925362 0.68878514 -20 1 C-20.33 1.33 -20.66 1.66 -21 2 C-22.99958364 2.04080783 -25.00045254 2.04254356 -27 2 C-27 1.34 -27 0.68 -27 0 C-17.4675408 -2.77307904 -9.62320703 -2.25010269 0 0 Z " fill="#0F427A" transform="translate(750,519)"/>
<path d="M0 0 C0.99 0.66 1.98 1.32 3 2 C2.19175781 2.73605469 1.38351562 3.47210938 0.55078125 4.23046875 C-0.52870221 5.21608409 -1.60812612 6.20176465 -2.6875 7.1875 C-3.48317383 7.91163086 -3.48317383 7.91163086 -4.29492188 8.65039062 C-6.79723542 10.93778153 -9.24374543 13.24482874 -11.63671875 15.6484375 C-13.7198929 17.72128186 -15.85270867 19.57956768 -18.125 21.4375 C-21.49504768 24.33511109 -23.1124643 26.95528065 -25 31 C-26.62332967 32.38576923 -28.28724465 33.72641268 -30 35 C-30.66 35.99 -31.32 36.98 -32 38 C-32.66 37.67 -33.32 37.34 -34 37 C-12.80714502 10.29214676 -12.80714502 10.29214676 0 0 Z " fill="#1B4D80" transform="translate(567,223)"/>
<path d="M0 0 C0.63164063 0.4125 1.26328125 0.825 1.9140625 1.25 C11.95179754 7.72969063 22.22203419 13.82657641 33 19 C33 19.66 33 20.32 33 21 C29.04 21 25.08 21 21 21 C20.67 20.34 20.34 19.68 20 19 C20.66 17.68 21.32 16.36 22 15 C19.03 14.34 16.06 13.68 13 13 C13 12.34 13 11.68 13 11 C12.01 10.67 11.02 10.34 10 10 C7.19444506 8.12963004 4.63073426 6.10458741 2 4 C1.01 3.34 0.02 2.68 -1 2 C-0.67 1.34 -0.34 0.68 0 0 Z " fill="#164A7F" transform="translate(621,491)"/>
<path d="M0 0 C0.33 0 0.66 0 1 0 C1 3.3 1 6.6 1 10 C0.01 10 -0.98 10 -2 10 C-2.33 9.34 -2.66 8.68 -3 8 C-3.37511719 8.47050781 -3.75023437 8.94101562 -4.13671875 9.42578125 C-7.20409695 13.15762928 -9.84781192 15.50868715 -14 18 C-16.1244081 20.2354223 -18.07814794 22.58942955 -20 25 C-20.99 24.67 -21.98 24.34 -23 24 C-22.55197021 23.55720703 -22.10394043 23.11441406 -21.64233398 22.65820312 C-19.57129904 20.60823317 -17.50439303 18.55414567 -15.4375 16.5 C-14.38079102 15.45585937 -14.38079102 15.45585937 -13.30273438 14.390625 C-9.11812987 10.22530438 -5.14114386 5.96393016 -1.33227539 1.45117188 C-0.89262451 0.97228516 -0.45297363 0.49339844 0 0 Z " fill="#0D4581" transform="translate(799,486)"/>
<path d="M0 0 C9.9648142 5.51245041 17.04516251 15.20381018 24 24 C25.52045992 25.89613282 27.04127343 27.79198219 28.5625 29.6875 C29.70896699 31.12449468 30.8550516 32.56179506 32 34 C30.68 34.66 29.36 35.32 28 36 C27.75121094 35.11957031 27.50242187 34.23914063 27.24609375 33.33203125 C25.940174 29.84002641 24.4082273 27.56614859 22.0625 24.6875 C21.02802734 23.39392578 21.02802734 23.39392578 19.97265625 22.07421875 C18.08938613 19.76895495 18.08938613 19.76895495 15 19 C14.38125 17.9171875 14.38125 17.9171875 13.75 16.8125 C11.72730274 13.56173655 9.41107235 11.67452675 6.42578125 9.33203125 C5.95527344 8.89246094 5.48476563 8.45289063 5 8 C5 7.34 5 6.68 5 6 C4.34 6 3.68 6 3 6 C2.67 4.68 2.34 3.36 2 2 C1.34 2 0.68 2 0 2 C0 1.34 0 0.68 0 0 Z " fill="#174A7C" transform="translate(846,227)"/>
<path d="M0 0 C0.66 0.33 1.32 0.66 2 1 C1.46890625 2.08796875 0.9378125 3.1759375 0.390625 4.296875 C-3.68039425 12.73231162 -7.36173514 20.99171407 -10 30 C-10.66 29.67 -11.32 29.34 -12 29 C-11.86722656 28.45472656 -11.73445312 27.90945313 -11.59765625 27.34765625 C-10.32210753 21.90097013 -9.53036157 16.56879648 -9 11 C-8.34 11 -7.68 11 -7 11 C-6.8453125 10.071875 -6.8453125 10.071875 -6.6875 9.125 C-6 7 -6 7 -3 5 C-2.67 4.01 -2.34 3.02 -2 2 C-1.34 2 -0.68 2 0 2 C0 1.34 0 0.68 0 0 Z " fill="#134B83" transform="translate(585,316)"/>
<path d="M0 0 C-12.02886959 5.98793949 -27.34109225 12.80487275 -41 13 C-41.66 12.34 -42.32 11.68 -43 11 C-39.93109813 9.46554906 -37.29905734 10.45015711 -34 11 C-34 10.34 -34 9.68 -34 9 C-26.03100406 6.83713681 -18.08306125 4.70169711 -10 3 C-10 2.34 -10 1.68 -10 1 C-6.16112237 -0.48320272 -3.93795909 -1.22419163 0 0 Z " fill="#16477A" transform="translate(723,536)"/>
<path d="M0 0 C2.32891212 3.49336818 2.23551143 4.86007865 2.1953125 8.98046875 C2.18564453 10.72553711 2.18564453 10.72553711 2.17578125 12.50585938 C2.15902344 13.72080078 2.14226563 14.93574219 2.125 16.1875 C2.11597656 17.41404297 2.10695313 18.64058594 2.09765625 19.90429688 C2.07406017 22.93639295 2.04113841 25.96809938 2 29 C-9.25 22.03571429 -9.25 22.03571429 -13 18 C-11.35 18.33 -9.7 18.66 -8 19 C-8 19.66 -8 20.32 -8 21 C-6.68 21.33 -5.36 21.66 -4 22 C-4 22.66 -4 23.32 -4 24 C-2.68 24.33 -1.36 24.66 0 25 C0 16.75 0 8.5 0 0 Z " fill="#26527A" transform="translate(913,492)"/>
<path d="M0 0 C4.64803872 1.77773592 9.12592057 3.88097966 13.625 6 C14.388125 6.35578125 15.15125 6.7115625 15.9375 7.078125 C16.67226563 7.42359375 17.40703125 7.7690625 18.1640625 8.125 C18.82873535 8.43695312 19.4934082 8.74890625 20.17822266 9.0703125 C22 10 22 10 25 12 C22 13 22 13 19.8125 12.0625 C19.214375 11.711875 18.61625 11.36125 18 11 C18 11.66 18 12.32 18 13 C18 13.99 18 14.98 18 16 C15.93506297 14.27367637 13.87303697 12.54406235 11.8125 10.8125 C11.23435547 10.32974609 10.65621094 9.84699219 10.06054688 9.34960938 C6.53189438 6.3791618 3.21303147 3.30984598 0 0 Z " fill="#18497F" transform="translate(560,538)"/>
<path d="M0 0 C0.33 0 0.66 0 1 0 C1 3.3 1 6.6 1 10 C-0.65 10 -2.3 10 -4 10 C-5.32 12.97 -6.64 15.94 -8 19 C-8.66 19 -9.32 19 -10 19 C-10.144375 19.78375 -10.28875 20.5675 -10.4375 21.375 C-11 24 -11 24 -12 26 C-12.66 26 -13.32 26 -14 26 C-12.54280375 21.1401754 -10.52155994 16.87870865 -8.125 12.4375 C-7.78597656 11.79103516 -7.44695313 11.14457031 -7.09765625 10.47851562 C-5.05643322 6.66383456 -2.88820424 3.25704418 0 0 Z " fill="#184B7D" transform="translate(527,270)"/>
<path d="M0 0 C0.9583374 0.00523682 1.9166748 0.01047363 2.90405273 0.01586914 C4.45576172 0.02070313 4.45576172 0.02070313 6.03881836 0.02563477 C7.12743164 0.03401367 8.21604492 0.04239258 9.33764648 0.05102539 C10.97636719 0.05779297 10.97636719 0.05779297 12.64819336 0.06469727 C15.35723144 0.07652713 18.06616248 0.09300996 20.77514648 0.11352539 C18.0196895 1.60016522 15.50503961 2.52854829 12.44702148 3.18383789 C11.64780273 3.35786133 10.84858398 3.53188477 10.02514648 3.71118164 C9.20014648 3.88520508 8.37514648 4.05922852 7.52514648 4.23852539 C6.68467773 4.4202832 5.84420898 4.60204102 4.97827148 4.78930664 C2.91159537 5.2355208 0.84350372 5.67516985 -1.22485352 6.11352539 C-1.22485352 4.79352539 -1.22485352 3.47352539 -1.22485352 2.11352539 C-1.88485352 1.78352539 -2.54485352 1.45352539 -3.22485352 1.11352539 C-2.22485352 0.11352539 -2.22485352 0.11352539 0 0 Z " fill="#0B427C" transform="translate(665.224853515625,247.886474609375)"/>
<path d="M0 0 C0.79921875 0.25394531 1.5984375 0.50789063 2.421875 0.76953125 C9.89370096 3.11105417 17.382611 5.18829667 25 7 C21.40537669 9.25998595 18.43404325 9.20868087 14.25 9.125 C12.49429688 9.09792969 12.49429688 9.09792969 10.703125 9.0703125 C9.36507812 9.03550781 9.36507812 9.03550781 8 9 C8.33 7.35 8.66 5.7 9 4 C4.545 3.01 4.545 3.01 0 2 C0 1.34 0 0.68 0 0 Z " fill="#063F7C" transform="translate(656,511)"/>
<path d="M0 0 C0 0.66 0 1.32 0 2 C-0.66 2.66 -1.32 3.32 -2 4 C-2.33 5.65 -2.66 7.3 -3 9 C-8.28 8.01 -13.56 7.02 -19 6 C-19 5.67 -19 5.34 -19 5 C-18.27554688 4.80664062 -17.55109375 4.61328125 -16.8046875 4.4140625 C-12.64798885 3.294525 -8.5224929 2.1741643 -4.4375 0.8125 C-2 0 -2 0 0 0 Z " fill="#104882" transform="translate(754,511)"/>
<path d="M0 0 C5.91492272 0.45224761 11.35199888 1.1582605 17 3 C16.67 3.66 16.34 4.32 16 5 C9.07 5 2.14 5 -5 5 C-4.67 4.34 -4.34 3.68 -4 3 C-2.68 3 -1.36 3 0 3 C0 2.01 0 1.02 0 0 Z " fill="#084280" transform="translate(752,179)"/>
<path d="M0 0 C0 0.66 0 1.32 0 2 C8.25 2.66 16.5 3.32 25 4 C15.17195565 8.91402217 0.3525177 4.36501482 -10 2 C-6.3558226 -0.4294516 -4.28758728 -0.16179575 0 0 Z " fill="#215489" transform="translate(617,546)"/>
<path d="M0 0 C1.73934679 3.23195981 2.2002412 4.6486669 1.3125 8.25 C0.56081191 11.50408199 -0.15206089 14.74755873 -0.73828125 18.03515625 C-0.86436768 18.7405957 -0.9904541 19.44603516 -1.12036133 20.17285156 C-1.36898008 21.57407004 -1.61501051 22.97575081 -1.8581543 24.37792969 C-2.53966883 28.13018165 -3.4374988 31.51804689 -5 35 C-6.45816996 31.07116224 -5.5946112 27.85888025 -4.78515625 23.828125 C-4.58326942 22.8044986 -4.58326942 22.8044986 -4.37730408 21.76019287 C-3.94706105 19.58843817 -3.50496302 17.41929452 -3.0625 15.25 C-2.76809428 13.77489622 -2.47446551 12.29963715 -2.18164062 10.82421875 C-1.46342235 7.21430255 -0.7345553 3.60663172 0 0 Z " fill="#225587" transform="translate(501,325)"/>
<path d="M0 0 C2.31 0 4.62 0 7 0 C3.59160112 4.00486868 0.15762253 7.98593705 -3.3125 11.9375 C-3.98925781 12.70964844 -4.66601562 13.48179687 -5.36328125 14.27734375 C-5.90339844 14.84582031 -6.44351563 15.41429687 -7 16 C-7.33 16 -7.66 16 -8 16 C-8 13.03 -8 10.06 -8 7 C-4.535 6.505 -4.535 6.505 -1 6 C-0.29733387 3.02425724 -0.29733387 3.02425724 0 0 Z " fill="#0B427A" transform="translate(608,281)"/>
<path d="M0 0 C0 0.33 0 0.66 0 1 C-1.670625 1.185625 -1.670625 1.185625 -3.375 1.375 C-7.03103677 1.6465813 -7.03103677 1.6465813 -9 4 C-11.65808885 4.10451251 -14.20090463 4.08955874 -16.8515625 3.9765625 C-17.62559418 3.95153656 -18.39962585 3.92651062 -19.19711304 3.90072632 C-21.67351533 3.81844085 -24.14913007 3.72188604 -26.625 3.625 C-28.30205098 3.56676906 -29.97913445 3.5094656 -31.65625 3.453125 C-35.77128769 3.31284966 -39.88567508 3.15977348 -44 3 C-44 2.67 -44 2.34 -44 2 C-42.73724243 1.96241577 -42.73724243 1.96241577 -41.44897461 1.92407227 C-38.29733856 1.82839721 -35.14583774 1.72919924 -31.99438477 1.62768555 C-30.6357042 1.58462706 -29.27697959 1.54293435 -27.91821289 1.50268555 C-25.95447697 1.44427107 -23.99090636 1.38038197 -22.02734375 1.31640625 C-20.84906006 1.27974854 -19.67077637 1.24309082 -18.45678711 1.20532227 C-12.20839582 0.83418751 -6.27806448 -0.11014148 0 0 Z " fill="#D2E9F7" transform="translate(737,593)"/>
<path d="M0 0 C-0.33 0.33 -0.66 0.66 -1 1 C1.97 1.495 1.97 1.495 5 2 C5 2.66 5 3.32 5 4 C2.22890693 4.05392397 -0.54113818 4.09363455 -3.3125 4.125 C-4.09818359 4.14175781 -4.88386719 4.15851562 -5.69335938 4.17578125 C-6.45068359 4.18222656 -7.20800781 4.18867187 -7.98828125 4.1953125 C-9.03302612 4.21102295 -9.03302612 4.21102295 -10.09887695 4.22705078 C-12 4 -12 4 -15 2 C-13.25364835 1.46706165 -11.50272348 0.94909337 -9.75 0.4375 C-8.77546875 0.14746094 -7.8009375 -0.14257812 -6.796875 -0.44140625 C-4.03756068 -0.99249836 -2.6087176 -0.93789609 0 0 Z " fill="#013A7B" transform="translate(699,556)"/>
<path d="M0 0 C1.85336918 2.38118953 3.55958862 4.82493322 5.19921875 7.35546875 C9.98968168 14.74517644 14.84088462 21.65163806 21 28 C20.67 28.66 20.34 29.32 20 30 C16.32694098 28.77564699 15.98477582 27.37629163 14.234375 24.09765625 C12.34270032 20.88300655 9.99830016 18.0603752 7.671875 15.15234375 C6.24425806 13.31445372 4.97954016 11.47199325 3.75 9.5 C2.18026528 6.72906236 2.18026528 6.72906236 -1 6 C-0.67 4.02 -0.34 2.04 0 0 Z " fill="#1C4E7F" transform="translate(585,448)"/>
<path d="M0 0 C0.804375 0.144375 1.60875 0.28875 2.4375 0.4375 C8.63052171 1.41534553 14.71798001 2.16107744 21 2 C20.67 2.66 20.34 3.32 20 4 C18.68 4 17.36 4 16 4 C16 4.66 16 5.32 16 6 C18.31 6.33 20.62 6.66 23 7 C23.33 7.99 23.66 8.98 24 10 C15.63019764 7.80148049 7.88172441 4.50929804 0 1 C0 0.67 0 0.34 0 0 Z " fill="#124783" transform="translate(613,574)"/>
<path d="M0 0 C0.66 0.33 1.32 0.66 2 1 C1.67 2.32 1.34 3.64 1 5 C-0.216875 5.103125 -1.43375 5.20625 -2.6875 5.3125 C-6.45820863 5.76471902 -8.78852636 6.94822518 -12 9 C-13.32 9 -14.64 9 -16 9 C-16.33 9.99 -16.66 10.98 -17 12 C-19.97 11.505 -19.97 11.505 -23 11 C-20.71183849 9.47455899 -18.82975618 8.40918719 -16.34765625 7.34375 C-15.65349609 7.04339844 -14.95933594 6.74304688 -14.24414062 6.43359375 C-13.16422852 5.97146484 -13.16422852 5.97146484 -12.0625 5.5 C-10.6363006 4.88638766 -9.21050651 4.27183223 -7.78515625 3.65625 C-7.1214502 3.37136719 -6.45774414 3.08648438 -5.77392578 2.79296875 C-4.36129719 2.16150472 -2.98341157 1.45247782 -1.62109375 0.71875 C-1.08613281 0.4815625 -0.55117188 0.244375 0 0 Z " fill="#0E427B" transform="translate(736,539)"/>
<path d="M0 0 C0.33 0 0.66 0 1 0 C1.04898438 1.10214844 1.09796875 2.20429688 1.1484375 3.33984375 C1.65902304 13.96426809 2.62496637 24.45362559 4 35 C3.34 35 2.68 35 2 35 C-0.33290657 27.65226277 -0.23017519 20.66160781 -0.125 13 C-0.11146484 11.12248047 -0.11146484 11.12248047 -0.09765625 9.20703125 C-0.07422716 6.1378199 -0.04142147 3.06901244 0 0 Z " fill="#08447C" transform="translate(567,372)"/>
<path d="M0 0 C1.66666667 0.66666667 3.33333333 1.33333333 5 2 C7.32597511 2.3813074 9.65912158 2.72460254 12 3 C10 5 10 5 7 6 C7 7.32 7 8.64 7 10 C2.56620325 7.78310162 0.53363068 5.22271781 -2 1 C-1.34 0.67 -0.68 0.34 0 0 Z " fill="#0C4585" transform="translate(578,548)"/>
<path d="M0 0 C2.52475462 2.52475462 3.04307871 4.73497997 4.125 8.125 C4.47820312 9.22070312 4.83140625 10.31640625 5.1953125 11.4453125 C5.46085937 12.28835938 5.72640625 13.13140625 6 14 C6.66 12.68 7.32 11.36 8 10 C8.33 10 8.66 10 9 10 C9 13.96 9 17.92 9 22 C6 21 6 21 5.10864258 19.3894043 C4.87298584 18.70789307 4.6373291 18.02638184 4.39453125 17.32421875 C4.13349609 16.57849609 3.87246094 15.83277344 3.60351562 15.06445312 C3.34248047 14.28005859 3.08144531 13.49566406 2.8125 12.6875 C2.53986328 11.91470703 2.26722656 11.14191406 1.98632812 10.34570312 C0.70070243 6.5983781 0 4.04201168 0 0 Z " fill="#164A7D" transform="translate(503,445)"/>
<path d="M0 0 C0.33 0.99 0.66 1.98 1 3 C-0.63598485 5.27120241 -2.27051491 7.29572883 -4.125 9.375 C-4.61226562 9.93960938 -5.09953125 10.50421875 -5.6015625 11.0859375 C-8.60278617 14.53415193 -11.73230679 17.80412423 -15 21 C-15.99 20.67 -16.98 20.34 -18 20 C-17.20335937 19.2265625 -16.40671875 18.453125 -15.5859375 17.65625 C-9.87922354 12.06460526 -4.56536062 6.59440979 0 0 Z " fill="#DDEDF6" transform="translate(872,513)"/>
<path d="M0 0 C7.38012878 3.52148277 14.33359321 7.25271032 21 12 C20.34 12.66 19.68 13.32 19 14 C18.401875 13.690625 17.80375 13.38125 17.1875 13.0625 C14.91043228 11.89790296 14.91043228 11.89790296 12 11 C11.3125 8.9375 11.3125 8.9375 11 7 C9.68 7 8.36 7 7 7 C7 6.34 7 5.68 7 5 C4.69 4.34 2.38 3.68 0 3 C0 2.01 0 1.02 0 0 Z " fill="#164B80" transform="translate(802,196)"/>
<path d="M0 0 C1.32 0.33 2.64 0.66 4 1 C0.66894651 3.66648371 -2.87197848 5.6669681 -6.625 7.6875 C-8.34589844 8.62142578 -8.34589844 8.62142578 -10.1015625 9.57421875 C-13 11 -13 11 -15 11 C-15.33 9.68 -15.66 8.36 -16 7 C-14.87851562 6.70996094 -14.87851562 6.70996094 -13.734375 6.4140625 C-12.74953125 6.15367187 -11.7646875 5.89328125 -10.75 5.625 C-9.77546875 5.36976563 -8.8009375 5.11453125 -7.796875 4.8515625 C-5.32110669 4.09776712 -3.21413982 3.33051522 -1 2 C-0.67 1.34 -0.34 0.68 0 0 Z " fill="#1B4B7E" transform="translate(646,258)"/>
<path d="M0 0 C5.41798672 0.69165788 10.6822785 1.75799248 16 3 C16 3.33 16 3.66 16 4 C14.95199219 4.13277344 13.90398438 4.26554688 12.82421875 4.40234375 C11.44529222 4.58057235 10.06638707 4.75896641 8.6875 4.9375 C7.99720703 5.02451172 7.30691406 5.11152344 6.59570312 5.20117188 C3.59857712 5.59210135 0.87549881 6.0415004 -2 7 C-1.625 5.0625 -1.625 5.0625 -1 3 C-0.34 2.67 0.32 2.34 1 2 C0.67 1.34 0.34 0.68 0 0 Z " fill="#073D7A" transform="translate(599,555)"/>
<path d="M0 0 C0 1.65 0 3.3 0 5 C-4.29 5 -8.58 5 -13 5 C-13 4.34 -13 3.68 -13 3 C-8.37802694 0.78145293 -5.23175837 -0.38281159 0 0 Z " fill="#083C7C" transform="translate(848,411)"/>
<path d="M0 0 C4.29 0 8.58 0 13 0 C13 0.66 13 1.32 13 2 C11.68 2 10.36 2 9 2 C9.33 2.66 9.66 3.32 10 4 C12.3140622 4.73075648 14.64828869 5.40138258 17 6 C17 6.66 17 7.32 17 8 C15.22604492 7.57533503 13.45589369 7.1347591 11.6875 6.6875 C10.70136719 6.44386719 9.71523438 6.20023438 8.69921875 5.94921875 C5.92823072 4.97476131 4.89360612 4.16015478 3 2 C2.01 1.34 1.02 0.68 0 0 Z " fill="#104884" transform="translate(735,248)"/>
<path d="M0 0 C0 0.66 0 1.32 0 2 C-2.90600261 3.25664978 -4.79604584 4 -8 4 C-8 4.66 -8 5.32 -8 6 C-8.99 6.66 -9.98 7.32 -11 8 C-11 8.33 -11 8.66 -11 9 C-14.375 9.125 -14.375 9.125 -18 9 C-18.66 8.34 -19.32 7.68 -20 7 C-17.04380781 5.8278551 -14.08471211 4.66322524 -11.125 3.5 C-10.28324219 3.16613281 -9.44148437 2.83226562 -8.57421875 2.48828125 C-7.76855469 2.17246094 -6.96289062 1.85664063 -6.1328125 1.53125 C-5.38918457 1.23798828 -4.64555664 0.94472656 -3.87939453 0.64257812 C-2 0 -2 0 0 0 Z " fill="#1D5389" transform="translate(818,421)"/>
<path d="M0 0 C7.23481663 2.567193 13.45442925 5.70613281 18 12 C18.99 12.33 19.98 12.66 21 13 C21 13.66 21 14.32 21 15 C21.66 15 22.32 15 23 15 C23.33 16.32 23.66 17.64 24 19 C19.54740464 15.71652186 15.1761929 12.35505607 10.875 8.875 C8.10853084 6.64218616 5.35800014 4.49722887 2.375 2.5625 C1.59125 2.046875 0.8075 1.53125 0 1 C0 0.67 0 0.34 0 0 Z " fill="#1B4A7C" transform="translate(777,268)"/>
<path d="M0 0 C4.05606165 0.46800711 7.46588679 0.87953208 11 3 C11 3.66 11 4.32 11 5 C7.04 5 3.08 5 -1 5 C-1.33 4.34 -1.66 3.68 -2 3 C-1.34 2.01 -0.68 1.02 0 0 Z " fill="#05407F" transform="translate(643,507)"/>
<path d="M0 0 C-4.17601638 2.2335742 -8.34293733 3.16525594 -12.9375 4.1875 C-13.73607422 4.37763672 -14.53464844 4.56777344 -15.35742188 4.76367188 C-19.5431959 5.70347698 -22.79419915 6.33396108 -27 5 C-27 4.67 -27 4.34 -27 4 C-7.97241379 -0.24913793 -7.97241379 -0.24913793 0 0 Z " fill="#1A4D81" transform="translate(761,587)"/>
<path d="M0 0 C0.75410156 0.00322266 1.50820313 0.00644531 2.28515625 0.00976562 C3.06246094 0.01814453 3.83976563 0.02652344 4.640625 0.03515625 C5.43339844 0.03966797 6.22617187 0.04417969 7.04296875 0.04882812 C8.99222008 0.0605706 10.94143238 0.07850479 12.890625 0.09765625 C12.890625 0.75765625 12.890625 1.41765625 12.890625 2.09765625 C6.290625 2.42765625 -0.309375 2.75765625 -7.109375 3.09765625 C-7.439375 2.43765625 -7.769375 1.77765625 -8.109375 1.09765625 C-5.33213575 0.3107718 -2.88327423 -0.02184299 0 0 Z " fill="#003C84" transform="translate(611.109375,543.90234375)"/>
<path d="M0 0 C2.475 0.99 2.475 0.99 5 2 C5 2.66 5 3.32 5 4 C5.598125 4.28875 6.19625 4.5775 6.8125 4.875 C9 6 9 6 12 8 C12 8.66 12 9.32 12 10 C12.721875 10.226875 13.44375 10.45375 14.1875 10.6875 C17.53209313 12.24831013 19.51603959 14.3031287 22 17 C17.53963082 15.50765218 14.10395414 13.05231284 10.4375 10.1875 C9.87353516 9.76146484 9.30957031 9.33542969 8.72851562 8.89648438 C5.29629073 6.24303331 2.58866746 3.52539799 0 0 Z " fill="#18497F" transform="translate(538,509)"/>
<path d="M0 0 C6.27 0 12.54 0 19 0 C18.01 0.495 18.01 0.495 17 1 C17 1.66 17 2.32 17 3 C11.39 2.67 5.78 2.34 0 2 C0 1.34 0 0.68 0 0 Z " fill="#013E80" transform="translate(672,544)"/>
<path d="M0 0 C-2.06228254 1.27118733 -4.12481891 2.54195965 -6.1875 3.8125 C-6.76564453 4.16892578 -7.34378906 4.52535156 -7.93945312 4.89257812 C-9.62496993 5.93055175 -11.31246025 6.96531853 -13 8 C-13.92425781 8.58136719 -14.84851563 9.16273438 -15.80078125 9.76171875 C-18 11 -18 11 -20 11 C-20 10.34 -20 9.68 -20 9 C-19.01 9 -18.02 9 -17 9 C-17 8.34 -17 7.68 -17 7 C-14.69 6.34 -12.38 5.68 -10 5 C-10 4.01 -10 3.02 -10 2 C-4.10714286 -1.34821429 -4.10714286 -1.34821429 0 0 Z " fill="#18497C" transform="translate(822,560)"/>
<path d="M0 0 C0.66 0 1.32 0 2 0 C2 0.66 2 1.32 2 2 C8.3246158 3.7899856 14.4491015 4.54240047 21 5 C21 5.66 21 6.32 21 7 C12.29942593 7.6727248 6.44638025 6.61280192 -1 2 C-0.67 1.34 -0.34 0.68 0 0 Z " fill="#104681" transform="translate(570,531)"/>
<path d="M0 0 C4.09125955 2.21886329 7.07157732 4.86015272 10.3125 8.1875 C11.19550781 9.08855469 12.07851563 9.98960937 12.98828125 10.91796875 C13.98408203 11.94857422 13.98408203 11.94857422 15 13 C14.34 13.66 13.68 14.32 13 15 C11.66079162 13.88200014 10.32877444 12.75538103 9 11.625 C8.2575 10.99851563 7.515 10.37203125 6.75 9.7265625 C6.1725 9.15679687 5.595 8.58703125 5 8 C5 7.34 5 6.68 5 6 C4.34 6 3.68 6 3 6 C2.67 4.68 2.34 3.36 2 2 C1.34 2 0.68 2 0 2 C0 1.34 0 0.68 0 0 Z " fill="#275787" transform="translate(846,227)"/>
<path d="M0 0 C0 0.66 0 1.32 0 2 C0.66 2.33 1.32 2.66 2 3 C-8.23 2.67 -18.46 2.34 -29 2 C-29 1.67 -29 1.34 -29 1 C-24.91671948 0.8320226 -20.83336765 0.66584479 -16.75 0.5 C-15.59113281 0.45230469 -14.43226563 0.40460938 -13.23828125 0.35546875 C-12.12324219 0.31035156 -11.00820313 0.26523438 -9.859375 0.21875 C-8.31975098 0.1559082 -8.31975098 0.1559082 -6.74902344 0.09179688 C-4.5003942 0.01670943 -2.24988257 0 0 0 Z " fill="#DDF5FF" transform="translate(723,171)"/>
<path d="M0 0 C1.65 0 3.3 0 5 0 C-1.47969052 10.10831721 -1.47969052 10.10831721 -5 13 C-5.66 13 -6.32 13 -7 13 C-7 12.01 -7 11.02 -7 10 C-5.824375 9.38125 -5.824375 9.38125 -4.625 8.75 C-1.0609368 6.37395786 -0.84707716 4.08137178 0 0 Z " fill="#154A81" transform="translate(874,504)"/>
<path d="M0 0 C0.33 0 0.66 0 1 0 C1.05404449 2.75026417 1.09369306 5.49946203 1.125 8.25 C1.15013672 9.41595703 1.15013672 9.41595703 1.17578125 10.60546875 C1.23662606 17.72431144 1.23662606 17.72431144 -1 21 C-2 20 -2 20 -2.03759766 18.15820312 C-1.99683105 17.37380859 -1.95606445 16.58941406 -1.9140625 15.78125 C-1.87023437 14.93175781 -1.82640625 14.08226562 -1.78125 13.20703125 C-1.70390625 11.86705078 -1.70390625 11.86705078 -1.625 10.5 C-1.58117187 9.60667969 -1.53734375 8.71335937 -1.4921875 7.79296875 C-1.12809741 1.12809741 -1.12809741 1.12809741 0 0 Z " fill="#043D7E" transform="translate(503,423)"/>
<path d="M0 0 C11.385 0.99 11.385 0.99 23 2 C23 2.33 23 2.66 23 3 C14.86776924 3.85602429 7.89211879 4.31320723 0 2 C0 1.34 0 0.68 0 0 Z " fill="#1A4C7F" transform="translate(619,559)"/>
<path d="M0 0 C-0.556875 0.268125 -1.11375 0.53625 -1.6875 0.8125 C-6.12852263 2.99460732 -6.12852263 2.99460732 -10 6 C-11.51928038 6.07179964 -13.04167482 6.08392007 -14.5625 6.0625 C-15.38878906 6.05347656 -16.21507812 6.04445313 -17.06640625 6.03515625 C-17.70449219 6.02355469 -18.34257813 6.01195312 -19 6 C-15.89579356 3.93052904 -12.9681325 2.67553856 -9.5 1.3125 C-8.3553125 0.85488281 -7.210625 0.39726562 -6.03125 -0.07421875 C-3 -1 -3 -1 0 0 Z " fill="#1D4F85" transform="translate(897,392)"/>
<path d="M0 0 C0.66 0.33 1.32 0.66 2 1 C1.33613281 1.65226562 0.67226563 2.30453125 -0.01171875 2.9765625 C-4.57350463 7.49173159 -9.02110378 11.96006479 -13 17 C-13.66 16.67 -14.32 16.34 -15 16 C-13.25113898 14.08228343 -11.50095499 12.16580317 -9.75 10.25 C-9.25886719 9.71117187 -8.76773438 9.17234375 -8.26171875 8.6171875 C-5.57126836 5.6756284 -2.8468489 2.7926232 0 0 Z " fill="#D2E4EF" transform="translate(614,282)"/>
<path d="M0 0 C6.08149603 2.16646423 12.09931767 4.37747452 18 7 C14.70303895 8.09898702 13.59505097 7.87124444 10.3125 7.0625 C9.50425781 6.86785156 8.69601562 6.67320312 7.86328125 6.47265625 C7.24839844 6.31667969 6.63351562 6.16070312 6 6 C6 5.67 6 5.34 6 5 C4.35 4.67 2.7 4.34 1 4 C0.67 2.68 0.34 1.36 0 0 Z " fill="#194D80" transform="translate(779,186)"/>
<path d="M0 0 C0.66 0 1.32 0 2 0 C2 3.3 2 6.6 2 10 C1.01 10.495 1.01 10.495 0 11 C0 10.34 0 9.68 0 9 C-0.66 9 -1.32 9 -2 9 C-1.125 1.125 -1.125 1.125 0 0 Z " fill="#073B76" transform="translate(510,302)"/>
<path d="M0 0 C0.86882813 0.27714844 1.73765625 0.55429687 2.6328125 0.83984375 C3.78523437 1.20207031 4.93765625 1.56429687 6.125 1.9375 C7.26195312 2.29714844 8.39890625 2.65679688 9.5703125 3.02734375 C12.71432699 3.91898339 15.76894393 4.53351014 19 5 C15.5647952 7.29013653 14.014669 7.17842973 10 7 C9.67 6.01 9.34 5.02 9 4 C6.89415562 3.19436362 6.89415562 3.19436362 4.4375 2.8125 C3.61121094 2.65394531 2.78492188 2.49539063 1.93359375 2.33203125 C1.29550781 2.22246094 0.65742187 2.11289062 0 2 C0 1.34 0 0.68 0 0 Z " fill="#194D82" transform="translate(656,511)"/>
<path d="M0 0 C0.33 0 0.66 0 1 0 C1 3.3 1 6.6 1 10 C-0.65 9.67 -2.3 9.34 -4 9 C-2.25 2.25 -2.25 2.25 0 0 Z " fill="#063F7A" transform="translate(527,270)"/>
<path d="M0 0 C4.49797113 1.68673918 8.72886302 3.81673892 13 6 C12.01 6.99 11.02 7.98 10 9 C8.70391053 8.06862408 7.41328368 7.1296434 6.125 6.1875 C5.40570312 5.66542969 4.68640625 5.14335938 3.9453125 4.60546875 C2 3 2 3 0 0 Z " fill="#395F86" transform="translate(560,538)"/>
<path d="M0 0 C1.63129887 4.06285757 0.29968777 7.20102184 -0.9375 11.25 C-1.31777344 12.51328125 -1.69804687 13.7765625 -2.08984375 15.078125 C-2.39019531 16.04234375 -2.69054687 17.0065625 -3 18 C-3.66 17.67 -4.32 17.34 -5 17 C-1.92482916 5.47835991 -1.92482916 5.47835991 0 0 Z " fill="#245583" transform="translate(507,308)"/>
<path d="M0 0 C1 3 1 3 0.109375 4.9375 C-0.33921875 5.618125 -0.7878125 6.29875 -1.25 7 C-1.90742187 8.0209375 -1.90742187 8.0209375 -2.578125 9.0625 C-3.92606771 10.89925709 -5.3436888 12.44111887 -7 14 C-7.66 13.67 -8.32 13.34 -9 13 C-6.03 8.71 -3.06 4.42 0 0 Z " fill="#194C7F" transform="translate(811,469)"/>
<path d="M0 0 C0.99 0.33 1.98 0.66 3 1 C1.71656721 3.00573682 0.4239631 5.00436119 -0.875 7 C-1.23980469 7.57234375 -1.60460937 8.1446875 -1.98046875 8.734375 C-2.93474767 10.19181916 -3.96277587 11.60037225 -5 13 C-5.66 13 -6.32 13 -7 13 C-6.67 11.68 -6.34 10.36 -6 9 C-5.34 9 -4.68 9 -4 9 C-3.67 7.68 -3.34 6.36 -3 5 C-2.34 5 -1.68 5 -1 5 C-0.67 3.35 -0.34 1.7 0 0 Z " fill="#174A7C" transform="translate(593,302)"/>
<path d="M0 0 C0.66 0 1.32 0 2 0 C1.34309381 3.78239671 0.279869 7.21841526 -1.0625 10.8125 C-1.42472656 11.78832031 -1.78695313 12.76414062 -2.16015625 13.76953125 C-2.57587891 14.87361328 -2.57587891 14.87361328 -3 16 C-3.33 16 -3.66 16 -4 16 C-3.32587732 10.4946648 -2.50344259 5.00688519 0 0 Z " fill="#DEEFF7" transform="translate(509,298)"/>
<path d="M0 0 C1.7015625 0.2475 1.7015625 0.2475 3.4375 0.5 C5.71132519 0.85632203 5.71132519 0.85632203 8 1 C8.99 1.33 9.98 1.66 11 2 C10.67 3.32 10.34 4.64 10 6 C5.05 4.02 5.05 4.02 0 2 C0 1.34 0 0.68 0 0 Z " fill="#154A83" transform="translate(755,256)"/>
<path d="M0 0 C2.875 -0.125 2.875 -0.125 6 0 C6.66 0.66 7.32 1.32 8 2 C6.2097939 2.67057887 4.41778511 3.3363469 2.625 4 C1.62726562 4.37125 0.62953125 4.7425 -0.3984375 5.125 C-3 6 -3 6 -5 6 C-5 5.34 -5 4.68 -5 4 C-4.0409375 3.8453125 -4.0409375 3.8453125 -3.0625 3.6875 C-2.381875 3.460625 -1.70125 3.23375 -1 3 C-0.67 2.01 -0.34 1.02 0 0 Z " fill="#164C84" transform="translate(777,578)"/>
<path d="M0 0 C1.32 0 2.64 0 4 0 C3.60196439 2.88575819 3.20990931 3.82189513 0.9375 5.75 C0.298125 6.1625 -0.34125 6.575 -1 7 C-1.66 6.67 -2.32 6.34 -3 6 C-2.67 4.68 -2.34 3.36 -2 2 C-1.34 2 -0.68 2 0 2 C0 1.34 0 0.68 0 0 Z " fill="#08366C" transform="translate(754,511)"/>
<path d="M0 0 C0.66 1.32 1.32 2.64 2 4 C-0.64 6.97 -3.28 9.94 -6 13 C-6.66 12.67 -7.32 12.34 -8 12 C-5.36 8.04 -2.72 4.08 0 0 Z " fill="#DCEBF4" transform="translate(595,303)"/>
<path d="M0 0 C0.66 0.33 1.32 0.66 2 1 C1.030625 1.45375 0.06125 1.9075 -0.9375 2.375 C-4.07079582 3.65786221 -4.07079582 3.65786221 -5 6 C-4.34 6 -3.68 6 -3 6 C-3.33 6.99 -3.66 7.98 -4 9 C-5.65 7.35 -7.3 5.7 -9 4 C-7.54618103 3.30300448 -6.08677047 2.61766134 -4.625 1.9375 C-3.40683594 1.36322266 -3.40683594 1.36322266 -2.1640625 0.77734375 C-1.44992187 0.52082031 -0.73578125 0.26429688 0 0 Z " fill="#1B4A7B" transform="translate(796,429)"/>
<path d="M0 0 C3.96 0.33 7.92 0.66 12 1 C11.67 1.66 11.34 2.32 11 3 C7.04 3 3.08 3 -1 3 C-0.67 2.01 -0.34 1.02 0 0 Z " fill="#003D83" transform="translate(860,405)"/>
<path d="M0 0 C0 2 0 2 -1.17578125 3.64453125 C-3.69620878 5.51731145 -5.1287869 5.12445901 -8.1875 4.6875 C-9.08855469 4.56761719 -9.98960937 4.44773437 -10.91796875 4.32421875 C-11.60503906 4.21722656 -12.29210937 4.11023438 -13 4 C-13 3.67 -13 3.34 -13 3 C-11.2092015 2.49689942 -9.41733089 1.99761372 -7.625 1.5 C-6.62726562 1.2215625 -5.62953125 0.943125 -4.6015625 0.65625 C-2 0 -2 0 0 0 Z " fill="#25588B" transform="translate(748,513)"/>
<path d="M0 0 C0 3.77910478 -0.99703962 4.46106101 -3.5 7.1875 C-4.1496875 7.90292969 -4.799375 8.61835938 -5.46875 9.35546875 C-5.9740625 9.89816406 -6.479375 10.44085938 -7 11 C-7.99 10.67 -8.98 10.34 -10 10 C-6.7 6.7 -3.4 3.4 0 0 Z " fill="#1C4F82" transform="translate(786,500)"/>
<path d="M0 0 C0.33 0 0.66 0 1 0 C1 3.96 1 7.92 1 12 C0.01 11.67 -0.98 11.34 -2 11 C-1.85957123 9.35369672 -1.71250671 7.70795821 -1.5625 6.0625 C-1.48128906 5.14597656 -1.40007812 4.22945313 -1.31640625 3.28515625 C-1 1 -1 1 0 0 Z " fill="#043B7B" transform="translate(511,455)"/>
<path d="M0 0 C1.32257812 0.19142578 1.32257812 0.19142578 2.671875 0.38671875 C4.00992188 0.56654297 4.00992188 0.56654297 5.375 0.75 C6.05046875 0.85699219 6.7259375 0.96398437 7.421875 1.07421875 C7.421875 1.73421875 7.421875 2.39421875 7.421875 3.07421875 C2.801875 3.07421875 -1.818125 3.07421875 -6.578125 3.07421875 C-2.578125 0.07421875 -2.578125 0.07421875 0 0 Z " fill="#013A7E" transform="translate(800.578125,428.92578125)"/>
<path d="M0 0 C-0.66 0.66 -1.32 1.32 -2 2 C-2.99 2 -3.98 2 -5 2 C-5 2.66 -5 3.32 -5 4 C-9.455 4.495 -9.455 4.495 -14 5 C-10.63156097 2.05261585 -4.40469071 -2.20234535 0 0 Z " fill="#D7E9F3" transform="translate(662,256)"/>
<path d="M0 0 C-1.78953185 0.83790789 -3.58169695 1.67019396 -5.375 2.5 C-6.87160156 3.19609375 -6.87160156 3.19609375 -8.3984375 3.90625 C-11 5 -11 5 -13 5 C-13 4.34 -13 3.68 -13 3 C-12.01 3 -11.02 3 -10 3 C-10 2.34 -10 1.68 -10 1 C-6.16112237 -0.48320272 -3.93795909 -1.22419163 0 0 Z " fill="#1E4C7E" transform="translate(723,536)"/>
<path d="M0 0 C2.475 0.495 2.475 0.495 5 1 C5 1.66 5 2.32 5 3 C6.32 3.33 7.64 3.66 9 4 C9 4.66 9 5.32 9 6 C10.32 6.66 11.64 7.32 13 8 C9.18008284 8 7.88692091 6.76738773 4.8125 4.5625 C3.91144531 3.92441406 3.01039063 3.28632812 2.08203125 2.62890625 C1.39496094 2.09136719 0.70789063 1.55382812 0 1 C0 0.67 0 0.34 0 0 Z " fill="#1A4C7E" transform="translate(900,510)"/>
<path d="M0 0 C-1.2824977 2.86095641 -2.45343989 5.11365918 -5 7 C-7.6875 7.1875 -7.6875 7.1875 -10 7 C-3.24137931 0 -3.24137931 0 0 0 Z " fill="#E7F4FA" transform="translate(632,270)"/>
<path d="M0 0 C1.12894876 0.93274109 2.25300876 1.87140122 3.375 2.8125 C4.00148438 3.33457031 4.62796875 3.85664063 5.2734375 4.39453125 C7 6 7 6 9 9 C8.01 9.495 8.01 9.495 7 10 C3.60582235 6.87378374 1.3937282 4.43458973 0 0 Z " fill="#2C5A89" transform="translate(606,477)"/>
<path d="M0 0 C0.99 0.66 1.98 1.32 3 2 C-0.465 4.97 -0.465 4.97 -4 8 C-4.33 7.01 -4.66 6.02 -5 5 C-3.35 3.35 -1.7 1.7 0 0 Z " fill="#104A83" transform="translate(567,223)"/>
<path d="M0 0 C-0.33 0.99 -0.66 1.98 -1 3 C-5.455 3.495 -5.455 3.495 -10 4 C-10 3.34 -10 2.68 -10 2 C-3.375 -1.125 -3.375 -1.125 0 0 Z " fill="#154981" transform="translate(628,189)"/>
<path d="M0 0 C1.051875 0.2475 2.10375 0.495 3.1875 0.75 C3.1875 1.41 3.1875 2.07 3.1875 2.75 C-2.7525 3.245 -2.7525 3.245 -8.8125 3.75 C-5.66311307 0.60061307 -4.55934222 -0.29897326 0 0 Z " fill="#E1F2F9" transform="translate(676.8125,556.25)"/>
<path d="M0 0 C2.31 0.33 4.62 0.66 7 1 C5.35 2.65 3.7 4.3 2 6 C0 2.25 0 2.25 0 0 Z " fill="#0F437D" transform="translate(823,552)"/>
<path d="M0 0 C0.66 0.33 1.32 0.66 2 1 C2.625 3.5625 2.625 3.5625 3 6 C2.34 6 1.68 6 1 6 C0.67 7.32 0.34 8.64 0 10 C-0.33 10 -0.66 10 -1 10 C-1.125 2.25 -1.125 2.25 0 0 Z " fill="#0C4178" transform="translate(577,432)"/>
<path d="M0 0 C2.56616632 3.84924948 2.55097676 6.4349304 3 11 C2.01 11.495 2.01 11.495 1 12 C0.63896464 10.18885568 0.28634496 8.37603177 -0.0625 6.5625 C-0.25972656 5.55316406 -0.45695312 4.54382813 -0.66015625 3.50390625 C-0.77230469 2.67761719 -0.88445312 1.85132813 -1 1 C-0.67 0.67 -0.34 0.34 0 0 Z " fill="#1A5087" transform="translate(499,427)"/>
<path d="M0 0 C3.3 0.33 6.6 0.66 10 1 C8 3 8 3 6.0546875 3.1953125 C4.03645833 3.13020833 2.01822917 3.06510417 0 3 C0 2.01 0 1.02 0 0 Z " fill="#104983" transform="translate(752,179)"/>
<path d="M0 0 C0.66 0.33 1.32 0.66 2 1 C2 4.3 2 7.6 2 11 C1.01 11 0.02 11 -1 11 C-0.835 9.9275 -0.67 8.855 -0.5 7.75 C0.08810915 3.96971248 0.08810915 3.96971248 0 0 Z " fill="#023C7A" transform="translate(502,325)"/>
<path d="M0 0 C-0.99 1.485 -0.99 1.485 -2 3 C-5.5 3.3125 -5.5 3.3125 -9 3 C-9.66 2.34 -10.32 1.68 -11 1 C-9.5437328 0.63743142 -8.08488815 0.28520207 -6.625 -0.0625 C-5.40683594 -0.35833984 -5.40683594 -0.35833984 -4.1640625 -0.66015625 C-2 -1 -2 -1 0 0 Z " fill="#19497C" transform="translate(697,556)"/>
<path d="M0 0 C-0.639375 0.103125 -1.27875 0.20625 -1.9375 0.3125 C-2.618125 0.539375 -3.29875 0.76625 -4 1 C-4.33 1.99 -4.66 2.98 -5 4 C-7.97 3.505 -7.97 3.505 -11 3 C-4.33333333 -1.44444444 -4.33333333 -1.44444444 0 0 Z " fill="#225385" transform="translate(724,547)"/>
<path d="M0 0 C0.33 0.66 0.66 1.32 1 2 C-3.455 2.495 -3.455 2.495 -8 3 C-8.33 2.34 -8.66 1.68 -9 1 C-5.92677456 0.08941469 -3.19902639 -0.08886184 0 0 Z " fill="#083977" transform="translate(612,544)"/>
<path d="M0 0 C-4.95 2.475 -4.95 2.475 -10 5 C-10 4.34 -10 3.68 -10 3 C-9.34 3 -8.68 3 -8 3 C-8 2.01 -8 1.02 -8 0 C-4.63458162 -1.08174162 -3.70152678 -0.92538169 0 0 Z " fill="#D7EBF5" transform="translate(597,203)"/>
<path d="M0 0 C1.6254308 0.14095064 3.25034051 0.28792087 4.875 0.4375 C5.77992188 0.51871094 6.68484375 0.59992187 7.6171875 0.68359375 C10 1 10 1 12 2 C12 2.66 12 3.32 12 4 C10.5608866 3.71640113 9.12374482 3.42278601 7.6875 3.125 C6.88699219 2.96257813 6.08648438 2.80015625 5.26171875 2.6328125 C3 2 3 2 0 0 Z " fill="#2A5688" transform="translate(591,542)"/>
<path d="M0 0 C0.66 0 1.32 0 2 0 C2 1.98 2 3.96 2 6 C1.01 6.495 1.01 6.495 0 7 C0 6.34 0 5.68 0 5 C-0.66 5 -1.32 5 -2 5 C-1.125 1.125 -1.125 1.125 0 0 Z " fill="#043B7B" transform="translate(814,466)"/>
<path d="M0 0 C3.3 0.99 6.6 1.98 10 3 C10 3.99 10 4.98 10 6 C6.00452264 5.38531118 3.22493358 3.34540624 0 1 C0 0.67 0 0.34 0 0 Z " fill="#13437B" transform="translate(806,446)"/>
<path d="M0 0 C0.33 0 0.66 0 1 0 C1.33 3.63 1.66 7.26 2 11 C1.34 11 0.68 11 0 11 C-1.125 3.375 -1.125 3.375 0 0 Z " fill="#215484" transform="translate(569,396)"/>
<path d="M0 0 C2.03125 3.7578125 2.03125 3.7578125 1.75 5.9375 C0.88539626 8.31516027 -0.02691456 10.66459494 -1 13 C-2.07310858 9.72814447 -1.89263102 7.57052408 -1.0625 4.25 C-0.86785156 3.45078125 -0.67320312 2.6515625 -0.47265625 1.828125 C-0.31667969 1.22484375 -0.16070312 0.6215625 0 0 Z " fill="#2E5A84" transform="translate(501,325)"/>
<path d="M0 0 C0.66 0 1.32 0 2 0 C2 0.66 2 1.32 2 2 C2.66 2 3.32 2 4 2 C3.625 4.4375 3.625 4.4375 3 7 C2.01 7.495 2.01 7.495 1 8 C0.67 5.36 0.34 2.72 0 0 Z " fill="#0C4077" transform="translate(576,327)"/>
<path d="M0 0 C0.66 0 1.32 0 2 0 C3.4606285 2.64738916 4 3.89448334 4 7 C1.69 7 -0.62 7 -3 7 C-3 6.67 -3 6.34 -3 6 C-1.35 6 0.3 6 2 6 C1.34 5.01 0.68 4.02 0 3 C0 2.01 0 1.02 0 0 Z " fill="#1F4C79" transform="translate(895,293)"/>
<path d="M0 0 C0.33 0.99 0.66 1.98 1 3 C-0.1875 4.5 -0.1875 4.5 -2 6 C-4.6875 6.1875 -4.6875 6.1875 -7 6 C-4.74259377 3.66475218 -2.7194239 1.81294927 0 0 Z " fill="#1D5288" transform="translate(588,207)"/>
<path d="M0 0 C3.3 0 6.6 0 10 0 C5.60171741 2.1991413 2.81449408 2.51855059 -2 3 C-1.34 2.67 -0.68 2.34 0 2 C0 1.34 0 0.68 0 0 Z " fill="#C2DBEA" transform="translate(662,175)"/>
<path d="M0 0 C6.75 0.875 6.75 0.875 9 2 C9 2.66 9 3.32 9 4 C3.46153846 3.38461538 3.46153846 3.38461538 1.125 1.4375 C0.75375 0.963125 0.3825 0.48875 0 0 Z " fill="#1A4B80" transform="translate(642,584)"/>
<path d="M0 0 C0.66 0.33 1.32 0.66 2 1 C-0.5 6.75 -0.5 6.75 -5 9 C-3.35 6.03 -1.7 3.06 0 0 Z " fill="#1E5184" transform="translate(819,457)"/>
<path d="M0 0 C-0.33 0.99 -0.66 1.98 -1 3 C-2.98 3 -4.96 3 -7 3 C-7.33 2.34 -7.66 1.68 -8 1 C-5.29120665 -0.35439668 -2.99066732 -0.06501451 0 0 Z " fill="#104683" transform="translate(848,411)"/>
<path d="M0 0 C0.66 1.32 1.32 2.64 2 4 C1.360625 4.268125 0.72125 4.53625 0.0625 4.8125 C-2.33131686 5.88667752 -2.33131686 5.88667752 -3 9 C-3.66 8.67 -4.32 8.34 -5 8 C-3.35 5.36 -1.7 2.72 0 0 Z " fill="#184F85" transform="translate(532,261)"/>
<path d="M0 0 C0.66 0 1.32 0 2 0 C2 0.66 2 1.32 2 2 C2.99 2.33 3.98 2.66 5 3 C5 3.99 5 4.98 5 6 C5.66 6 6.32 6 7 6 C6.67 6.99 6.34 7.98 6 9 C4.99406757 7.8803014 3.9954151 6.7540588 3 5.625 C2.443125 4.99851563 1.88625 4.37203125 1.3125 3.7265625 C0 2 0 2 0 0 Z " fill="#D5E8F2" transform="translate(868,248)"/>
<path d="M0 0 C0 0.66 0 1.32 0 2 C0.66 2.33 1.32 2.66 2 3 C-4.0546875 3.1953125 -4.0546875 3.1953125 -6 3 C-6.66 2.34 -7.32 1.68 -8 1 C-5.10765685 0.17361624 -3.11257569 0 0 0 Z " fill="#CFE4EE" transform="translate(723,171)"/>
<path d="M0 0 C2.64 0.66 5.28 1.32 8 2 C7.67 3.32 7.34 4.64 7 6 C5.83054208 5.19152271 4.66449539 4.37810888 3.5 3.5625 C2.8503125 3.11003906 2.200625 2.65757812 1.53125 2.19140625 C1.0259375 1.79824219 0.520625 1.40507812 0 1 C0 0.67 0 0.34 0 0 Z " fill="#1D5184" transform="translate(891,504)"/>
<path d="M0 0 C0.66 0 1.32 0 2 0 C2 0.66 2 1.32 2 2 C2.66 2 3.32 2 4 2 C5.6875 3.8125 5.6875 3.8125 7 6 C6.67 6.99 6.34 7.98 6 9 C4.99712471 7.68969568 3.99777175 6.37669473 3 5.0625 C2.443125 4.33160156 1.88625 3.60070312 1.3125 2.84765625 C0 1 0 1 0 0 Z " fill="#174A7E" transform="translate(523,491)"/>
<path d="M0 0 C0.99 0.33 1.98 0.66 3 1 C1.7191375 4.64553172 0.83328987 6.16671013 -2 9 C-1.34 6.03 -0.68 3.06 0 0 Z " fill="#D2E9F5" transform="translate(817,454)"/>
<path d="M0 0 C0.33 0.99 0.66 1.98 1 3 C1.66 3 2.32 3 3 3 C2.625 5.4375 2.625 5.4375 2 8 C1.01 8.495 1.01 8.495 0 9 C0 6.03 0 3.06 0 0 Z " fill="#04427D" transform="translate(568,404)"/>
<path d="M0 0 C0 3.20395416 -0.74335022 5.09399739 -2 8 C-2.99 7.67 -3.98 7.34 -5 7 C-5 5 -5 5 -2.5 2.375 C-1.675 1.59125 -0.85 0.8075 0 0 Z " fill="#044080" transform="translate(538,256)"/>
<path d="M0 0 C0.99 0 1.98 0 3 0 C3 0.66 3 1.32 3 2 C4.32 2.33 5.64 2.66 7 3 C7.33 4.32 7.66 5.64 8 7 C6.66382648 6.02471263 5.3311249 5.04466681 4 4.0625 C3.2575 3.51722656 2.515 2.97195312 1.75 2.41015625 C1.1725 1.94480469 0.595 1.47945312 0 1 C0 0.67 0 0.34 0 0 Z " fill="#CEE2EE" transform="translate(834,216)"/>
<path d="M0 0 C2.97 0.33 5.94 0.66 9 1 C9.33 1.99 9.66 2.98 10 4 C6.7 3.01 3.4 2.02 0 1 C0 0.67 0 0.34 0 0 Z " fill="#2D5C8C" transform="translate(627,580)"/>
<path d="M0 0 C2.31 0.33 4.62 0.66 7 1 C5.625 2.5 5.625 2.5 4 4 C3.34 4 2.68 4 2 4 C2 3.34 2 2.68 2 2 C1.34 2 0.68 2 0 2 C0 1.34 0 0.68 0 0 Z " fill="#05366F" transform="translate(727,528)"/>
<path d="M0 0 C-0.99 0.33 -1.98 0.66 -3 1 C-3.73323796 3.01508358 -3.73323796 3.01508358 -4 5 C-4.66 5 -5.32 5 -6 5 C-6.33 3.68 -6.66 2.36 -7 1 C-4.53721199 -0.231394 -2.7204945 -0.07159196 0 0 Z " fill="#08407C" transform="translate(637,264)"/>
</svg>
